<?xml version="1.0" encoding="utf-8"?>
<!-- Generator: Adobe Illustrator 23.0.1, SVG Export Plug-In . SVG Version: 6.00 Build 0)  -->
<svg version="1.1" id="Layer_1" xmlns="http://www.w3.org/2000/svg" xmlns:xlink="http://www.w3.org/1999/xlink" x="0px" y="0px"
	 viewBox="0 0 1109.2 1040.4" style="enable-background:new 0 0 1109.2 1040.4;" xml:space="preserve">
<style type="text/css">
	.st0{fill:#231F20;}
</style>
<g>
	<path class="st0" d="M78.9,0.1C48-1.2,17.3,17.5,5.8,46.5c-9,21.8-5.2,46.1-3.4,69c9,87.1,59,167.7,131.5,216.4
		c16.7,11.8,34.7,21.5,52.8,30.8l4.5,2.6c1,145.3,0.1,290.7,0.5,436c0.5,27.9-2,56.1,3.9,83.6c10.2,50.1,41.1,95.4,83.9,123.4
		c40.1,26.6,90.4,37.5,137.9,29.6c45.5-7.1,87.8-31.3,117.6-66.2c20.8-25.2,36-55.2,42.4-87.2c5.8-27.3,3.6-55.3,4-83
		c50.5,50.6,101.2,101,151.7,151.6c17.9,17.7,34.9,36.8,55.9,51.2c43.5,30.5,99.4,42.4,151.7,33c60.4-10.1,114.6-49.6,143.8-103.3
		c38.8-69.1,31.6-160.6-17.6-222.8c-29.1-33.5-62.3-63.3-93-95.2c-14.7-14.8-29.4-29.5-44.3-44.1c43.7-42.1,75.6-96.2,91.1-154.9
		c18.7-70.4,13.1-147-15.5-213.9C963.9,104.7,872.9,29.3,768.7,7.7C728.1-1.5,686.3,0.3,645,0.2 M506.5,833.7
		c0.6,21.4-1.8,43.4-11.4,62.9c-19.6,42.8-66.1,71.3-113.2,68.9c-47.4-1.1-91.9-33.4-108-77.9c-10.1-25-6.8-52.4-7.3-78.6
		c-0.3-165.4,0.8-330.9-0.6-496.3c-19.1-5.3-37.6-12.7-55.3-21.7c-46.9-24.1-88.7-60.9-112.1-108.8c-16.8-33-23.4-70.2-24.2-107
		c106,0,212.1-0.3,318.1,0.2C451.8,77,504.2,129,506,188.3 M578.5,162.6c-5.3-31.9-19-62.1-38.9-87.6c25.4,0.1,50.8,0.2,76.3-0.1
		c33.8,0.5,67.7-0.8,101.6,0.8C805,81.1,887.2,135.2,927.3,213c29.4,55.3,36.7,121.4,21.8,182.1c-18.9,77.2-75.9,143.4-149,174.4
		c-30.6,12.9-63.7,20-97,20.3c-40.3,0.4-80.5-0.4-120.7,0.4c-1.6-114.8-0.5-229.7-1-344.5C580.9,218.1,583,190.1,578.5,162.6z
		 M986.9,734.8c28.2,25,47.7,60.9,47.5,99.1c1.8,53.1-33.2,104.5-82.9,123c-43.6,17.2-96.5,8.2-131.5-23.2
		c-14.5-13.2-27.8-27.7-41.9-41.3c-46.3-46.1-92.3-92.5-138.6-138.6c-19.4-19.4-38.8-38.8-58.2-58.3c0-10.2,0-20.4,0-30.6
		c56.9-1.2,114.2,3.4,170.8-4.2c41.4-6.9,81.5-21.5,117.5-43.1"/>
</g>
</svg>
