<svg id="Layer_1" data-name="Layer 1" xmlns="http://www.w3.org/2000/svg" width="504.08" height="205.47" viewBox="0 0 504.08 205.47"><title>traveller</title><path d="M166.47,22.2A145.12,145.12,0,0,1,22.2,166.47,102.71,102.71,0,1,0,166.47,22.2Z" style="fill:#86d5f0"/><path d="M166.47,22.2A102.7,102.7,0,0,0,22.2,166.47,145.12,145.12,0,0,0,166.47,22.2Z" style="fill:#96d9f2"/><path d="M152.32,42.51c-7.82,3.55-12.14-.63-17.71,3.55-6.87,5.17-9.63,18.56-3.54,28.33,4.31,6.89,12,8.62,20.77,10.53a144.55,144.55,0,0,0,14.53-58A29.14,29.14,0,0,1,152.32,42.51Z" style="fill:#26b677"/><path d="M167.59,23.08a28,28,0,0,1-1.24,3.79,144.7,144.7,0,0,1-14.52,58.05l.49.1c12.15,2.66,16.87-3,28.34,0a43.09,43.09,0,0,1,14.17,7.09,33,33,0,0,1,10.47,15.54c.08-1.63.16-3.26.16-4.92A102.52,102.52,0,0,0,167.59,23.08Z" style="fill:#00a469"/><path d="M99.19,145.24c7,7.76,8.86,20.86,3.54,28.34-4.32,6.09-10.23,4-14.17,10.62a18.73,18.73,0,0,0,0,17.72,15.87,15.87,0,0,0,2,2.79,104.11,104.11,0,0,0,12.22.75,102.71,102.71,0,0,0,90-53.2c-6.44-4.31-16.51-10-26.25-10.56a43.42,43.42,0,0,0-28.33,7.08c-10.45,7.65-12.51,18.49-17.72,17.71-3.68-.53-5.7-6.48-7.08-10.62-3.16-9.44-1.45-15.83-1.48-21.12a142.82,142.82,0,0,1-13.54,9.61C98.71,144.72,99,145,99.19,145.24Z" style="fill:#00a469"/><path d="M109.82,127.53c-3.65-5.1-10.45-6.06-17.71-7.09-15.23-2.12-21.22,4.43-28.34,0a16.83,16.83,0,0,1-7.09-17.71c3-8.89,16-5.88,31.88-17.71,5.14-3.79,17.36-12.89,17.72-24.79.35-11.66-11-15-14.17-28.34-1.37-5.75,1.18-19,7.66-31.78A102.71,102.71,0,0,0,10.46,57.57v0a104.6,104.6,0,0,0,.17,38c2.17,14.27,4.15,27.24,14.17,39,4.4,5.17,11.16,13,21.26,14.17,11.19,1.24,26-5.91,28.33-7.08A21.74,21.74,0,0,1,85,138.16a20.14,20.14,0,0,1,13.32,6.2,142.82,142.82,0,0,0,13.54-9.61A11.75,11.75,0,0,0,109.82,127.53Z" style="fill:#26b677"/><path d="M74.39,28.35c0,15.65-28.33,53.13-28.33,53.13S28.38,58.1,20.94,40.57a34,34,0,0,1-3.22-12.22,28.34,28.34,0,1,1,56.67,0Z" style="fill:#f0542c"/><path d="M56.68,24.8A10.63,10.63,0,1,1,46.06,14.18,10.62,10.62,0,0,1,56.68,24.8Z" style="fill:#f2f2f2"/><path d="M180.66,124a48,48,0,0,1-6.34,18.81,283.61,283.61,0,0,1-22,34.32s-9.28-12.29-17.25-25.75a136.81,136.81,0,0,1-7.86-15.16A34,34,0,0,1,124,124a28.34,28.34,0,1,1,56.67,0Z" style="fill:#ffce04"/><path d="M163,120.44a10.63,10.63,0,1,1-10.63-10.62A10.63,10.63,0,0,1,163,120.44Z" style="fill:#f2f2f2"/><path d="M282.05,120.23a1.08,1.08,0,0,1-.57-1v-36H270a1,1,0,0,1-.9-.44,2.61,2.61,0,0,1-.27-1.34v-1a2.62,2.62,0,0,1,.27-1.36,1,1,0,0,1,.9-.42h28a1,1,0,0,1,.91.42,2.62,2.62,0,0,1,.27,1.36v1a2.61,2.61,0,0,1-.27,1.34,1,1,0,0,1-.91.44H286.76v36c0,.88-.81,1.31-2.42,1.31h-.47A4,4,0,0,1,282.05,120.23Z" style="fill:#231f20"/><path d="M306.34,120.23a1.08,1.08,0,0,1-.57-1v-21a29.83,29.83,0,0,0-.37-5.63c-.24-1.15-.37-1.78-.37-1.89,0-.5.38-.85,1.13-1.06a7.92,7.92,0,0,1,2.13-.32,1.28,1.28,0,0,1,1.21.86,10.44,10.44,0,0,1,.71,2.4l.17.7q3.18-4.45,6.92-4.46a4.39,4.39,0,0,1,2.58.62,2,2,0,0,1,.88,1.66,7,7,0,0,1-.36,2.13c-.23.75-.51,1.13-.82,1.13a3.34,3.34,0,0,1-.84-.2,5.86,5.86,0,0,0-1.07-.36,7.39,7.39,0,0,0-1.38-.11,4.73,4.73,0,0,0-2.61.8,10.05,10.05,0,0,0-2.06,1.78,5.88,5.88,0,0,0-.84,1.08v21.83a1.08,1.08,0,0,1-.57,1,3.86,3.86,0,0,1-1.78.31h-.24A4.05,4.05,0,0,1,306.34,120.23Z" style="fill:#231f20"/><path d="M328,118.53q-2.82-2.25-2.82-6.69c0-3.11.95-5.46,2.85-7a14.45,14.45,0,0,1,7-3.06,69.33,69.33,0,0,1,10-.79V98.14a4.58,4.58,0,0,0-1.53-3.61q-1.53-1.36-5-1.36a15.61,15.61,0,0,0-4.66.62A24.5,24.5,0,0,0,330,95.28a3.36,3.36,0,0,1-.91.37,1.26,1.26,0,0,1-.89-.59,6.75,6.75,0,0,1-.84-1.32,3,3,0,0,1-.35-1.08q0-.76,1.59-1.68a16,16,0,0,1,4.19-1.51,23.77,23.77,0,0,1,5.4-.6c3.74,0,6.64.81,8.71,2.45A8.28,8.28,0,0,1,350,98.2v13.41a31.16,31.16,0,0,0,.35,5.63c.23,1.15.35,1.78.35,1.89,0,.5-.37.85-1.12,1.06a7.89,7.89,0,0,1-2.1.32,1.27,1.27,0,0,1-1.2-.91,15.09,15.09,0,0,1-.75-2.62l-.14-.67a14,14,0,0,1-4.35,3.26,12.85,12.85,0,0,1-5.69,1.21A11.49,11.49,0,0,1,328,118.53Zm12.7-3.16a20.88,20.88,0,0,0,4.3-3.06v-7a69.3,69.3,0,0,0-7.29.37,11.69,11.69,0,0,0-5,1.7,4.63,4.63,0,0,0-2.15,4.21,4.88,4.88,0,0,0,1.29,3.65,5.28,5.28,0,0,0,3.82,1.26A10.84,10.84,0,0,0,340.68,115.37Z" style="fill:#231f20"/><path d="M365.84,119.6l-9.61-28.72a3.65,3.65,0,0,1-.2-.77c0-.32.21-.56.64-.74a5.25,5.25,0,0,1,1.95-.27h.3c1.39,0,2.18.31,2.38.94l6.08,19c.5,1.48,1.07,3.49,1.72,6l.37,1.41h.27l.4-1.78q.74-3.52,1.38-5.55L377.66,90c.21-.63,1-.94,2.46-.94h.16c1.5,0,2.26.34,2.26,1a1.82,1.82,0,0,1-.24.8l-9.57,28.69c-.21.63-1,.94-2.42.94h-2.05C366.85,120.54,366,120.23,365.84,119.6Z" style="fill:#231f20"/><path d="M390.65,116.9Q387,113,387,105t3.52-12q3.54-4.11,10.38-4.11,6.12,0,9.23,4t3.1,11.62a1.93,1.93,0,0,1-.35.93,4.46,4.46,0,0,1-.84,1,1.35,1.35,0,0,1-.82.45H392.41c.25,3.34,1.1,5.77,2.57,7.31s3.68,2.3,6.64,2.3a13.6,13.6,0,0,0,4.28-.6,25.43,25.43,0,0,0,3.48-1.48l.5-.24a1.34,1.34,0,0,1,.47-.17c.25,0,.53.2.86.59a7,7,0,0,1,.84,1.31,2.92,2.92,0,0,1,.35,1.06c0,.49-.49,1-1.48,1.65a14.51,14.51,0,0,1-3.95,1.54,20.84,20.84,0,0,1-5.29.64Q394.26,120.78,390.65,116.9Zm17.28-14.33q0-9.41-7.15-9.4-7.69,0-8.37,9.4Z" style="fill:#231f20"/><path d="M423.22,119q-2.36-1.81-2.35-6.42V76.84c0-.87.79-1.31,2.38-1.31h.27c1.57,0,2.35.44,2.35,1.31v35.24a5.14,5.14,0,0,0,.88,3.43,3,3,0,0,0,2.35,1,8.8,8.8,0,0,0,1.74-.13,5.68,5.68,0,0,1,.84-.14c.36,0,.66.36.89,1.08a5.67,5.67,0,0,1,.36,1.71q0,1.78-4.37,1.78A8.49,8.49,0,0,1,423.22,119Z" style="fill:#231f20"/><path d="M441,119q-2.36-1.81-2.35-6.42V76.84c0-.87.79-1.31,2.38-1.31h.27c1.57,0,2.35.44,2.35,1.31v35.24a5.14,5.14,0,0,0,.88,3.43,3,3,0,0,0,2.35,1,8.8,8.8,0,0,0,1.74-.13,5.68,5.68,0,0,1,.84-.14c.36,0,.66.36.89,1.08a5.67,5.67,0,0,1,.36,1.71q0,1.78-4.37,1.78A8.51,8.51,0,0,1,441,119Z" style="fill:#231f20"/><path d="M458.41,116.9Q454.79,113,454.8,105t3.52-12q3.54-4.11,10.38-4.11,6.12,0,9.23,4t3.1,11.62a1.93,1.93,0,0,1-.35.93,4.46,4.46,0,0,1-.84,1,1.35,1.35,0,0,1-.82.45H460.17c.25,3.34,1.1,5.77,2.57,7.31s3.68,2.3,6.64,2.3a13.6,13.6,0,0,0,4.28-.6,25.43,25.43,0,0,0,3.48-1.48l.5-.24a1.34,1.34,0,0,1,.47-.17c.25,0,.53.2.86.59a7,7,0,0,1,.84,1.31,2.92,2.92,0,0,1,.35,1.06c0,.49-.49,1-1.48,1.65a14.51,14.51,0,0,1-3.95,1.54,20.84,20.84,0,0,1-5.29.64Q462,120.78,458.41,116.9Zm17.28-14.33q0-9.41-7.15-9.4-7.69,0-8.37,9.4Z" style="fill:#231f20"/><path d="M489.67,120.23a1.08,1.08,0,0,1-.57-1v-21a30.71,30.71,0,0,0-.37-5.63c-.25-1.15-.37-1.78-.37-1.89,0-.5.37-.85,1.12-1.06a7.94,7.94,0,0,1,2.14-.32,1.29,1.29,0,0,1,1.21.86,11,11,0,0,1,.7,2.4l.17.7c2.13-3,4.43-4.46,6.92-4.46a4.44,4.44,0,0,1,2.59.62,1.94,1.94,0,0,1,.87,1.66,7.29,7.29,0,0,1-.35,2.13c-.24.75-.51,1.13-.83,1.13a3.54,3.54,0,0,1-.84-.2,5.39,5.39,0,0,0-1.07-.36,7.39,7.39,0,0,0-1.38-.11,4.68,4.68,0,0,0-2.6.8,9.86,9.86,0,0,0-2.07,1.78,5.88,5.88,0,0,0-.84,1.08v21.83a1.08,1.08,0,0,1-.57,1,3.83,3.83,0,0,1-1.78.31h-.24A4,4,0,0,1,489.67,120.23Z" style="fill:#231f20"/></svg>